# xmcd CD database file
#
# Track frame offsets:
#	180
#	15891
#	29552
#	48265
#	60618
#	77701
#	92981
#	107275
#	122958
#	137437
#	150706
#	163823
#	178609
#	195040
#	207809
#	220359
#	233749
#	247216
#
# Disc length: 3489 seconds
#
# Revision: 0
# Processed by: cddbd v1.5.1PL0 Copyright (c) Steve Scherf et al.
# Submitted via: CDex 1.50
#
DISCID=ea0d9f12
DTITLE=Divers - Ballads in Jazz Disc 2
DYEAR=1900
DGENRE=Jazz
TTITLE0=Duke Ellington - Warm valley
TTITLE1=Jack Teagarden - Stars fell on Alabama
TTITLE2=Sydney Bechet - Summertime
TTITLE3=Helen Humes - Blame it on my last affair
TTITLE4=Art Tatum - Over the rainbow
TTITLE5=Coleman Hawkins - How deep is the ocean
TTITLE6=Count Basie - Blue and sentimental
TTITLE7=Benny Goodman - The man I love
TTITLE8=Frank Sinatra - Tommy Dorsey - I'll never smile again
TTITLE9=Nat King Cole - Gee baby, ain't good to you
TTITLE10=Ben Wester - Chelsea bridge
TTITLE11=Bud Freeman - Memories of you
TTITLE12=Henry "Red" Allen - Roamin'
TTITLE13=Lester Young - I want a little girl
TTITLE14=Ella Fitzgerald - Can't help lovin' that man
TTITLE15=Bobby Hacket - Embraceable you
TTITLE16=Johnny Hodges - Day dream
TTITLE17=Charlie Christian - Stardust
EXTD=
EXTT0=
EXTT1=
EXTT2=
EXTT3=
EXTT4=
EXTT5=
EXTT6=
EXTT7=
EXTT8=
EXTT9=
EXTT10=
EXTT11=
EXTT12=
EXTT13=
EXTT14=
EXTT15=
EXTT16=
EXTT17=
PLAYORDER=
